{"title":"[ShepardTDS] Ef - A Tale of Melodies Dual Audio [720p 8-bit x265","uid":13022248,"size":2608608982,"categoryP":"video","categoryS":"tv_shows","magnet":"?xt=urn:btih:6495716bf8a4445a64bf5763ec51b6ddfa442e2f&amp;dn=%5BShepardTDS%5D+Ef+-+A+Tale+of+Melodies+Dual+Audio+%5B720p+8-bit+x265&amp;tr=udp%3A%2F%2Ftracker.leechers-paradise.org%3A6969&amp;tr=udp%3A%2F%2Fzer0day.ch%3A1337&amp;tr=udp%3A%2F%2Fopen.demonii.com%3A1337&amp;tr=udp%3A%2F%2Ftracker.coppersurfer.tk%3A6969&amp;tr=udp%3A%2F%2Fexodus.desync.com%3A6969","seeders":0,"leechers":1,"uploader":"ShepardTDS","files":19,"time":1450365797,"description":"http://extraimago.com/images/2015/12/15/35213_front.jpg\r\n\r\nConstant Quality encoding.\r\nVariable Bit rates\r\nBlu-Ray Source\r\nED and OP included\r\n \nhttp://extraimago.com/images/2015/12/17/sample1.jpg\r\n \nhttp://extraimago.com/images/2015/12/17/sample2.jpg\r\n\r\nGeneral\r\n\r\nFormat : Matroska\r\nFile size : 153 MiB-264 MiB\r\nDuration : 23mn 46s\r\nOverall bit rate : 897 Kbps-1,558 Kbps\r\nEncoded date : UTC 2015-11-29 21:56:45\r\nWriting application : mkvmerge v7.7.0 ('Six Voices') 32bit built on Feb 28 2015 23:23:00\r\nWriting library : libebml v1.3.1 + libmatroska v1.4.2\r\n\r\nVideo\r\nID : 1\r\nFormat : V_MPEGH/ISO/HEVC\r\nCodec ID : V_MPEGH/ISO/HEVC\r\nDuration : 23mn 46s\r\nBit rate : 496 Kbps-1,143 Kbps\r\nWidth : 1 280 pixels\r\nHeight : 720 pixels\r\nDisplay aspect ratio : 16:9\r\nFrame rate : 23.976 fps\r\nBits/(Pixel*Frame) : 0.022\r\nStream size : 84.3 MiB (55%)\r\n\r\nAudio #1\r\nID : 2\r\nFormat : AC-3\r\nFormat/Info : Audio Coding 3\r\nMode extension : CM (complete main)\r\nCodec ID : A_AC3\r\nDuration : 23mn 46s\r\nBit rate mode : Constant\r\nBit rate : 192 Kbps\r\nChannel(s) : 2 channels\r\nChannel positions : Front: L R\r\nSampling rate : 48.0 KHz\r\nBit depth : 16 bits\r\nCompression mode : Lossy\r\nStream size : 32.6 MiB (21%)\r\nLanguage : English\r\n\r\nAudio #2\r\nID : 3\r\nFormat : AC-3\r\nFormat/Info : Audio Coding 3\r\nMode extension : CM (complete main)\r\nCodec ID : A_AC3\r\nDuration : 23mn 46s\r\nBit rate mode : Constant\r\nBit rate : 192 Kbps\r\nChannel(s) : 2 channels\r\nChannel positions : Front: L R\r\nSampling rate : 48.0 KHz\r\nBit depth : 16 bits\r\nCompression mode : Lossy\r\nStream size : 32.6 MiB (21%)\r\nLanguage : Japanese\r\n\r\nText #1\r\nID : 4\r\nFormat : ASS\r\nCodec ID : S_TEXT/ASS\r\nCodec ID/Info : Advanced Sub Station Alpha\r\nCompression mode : Lossless\r\nTitle : Signs/Songs\r\nLanguage : English\r\n\r\nText #2\r\nID : 5\r\nFormat : ASS\r\nCodec ID : S_TEXT/ASS\r\nCodec ID/Info : Advanced Sub Station Alpha\r\nCompression mode : Lossless\r\nTitle : Dialogue\r\nLanguage : English\r\n\r\nMenu\r\n00:00:00.000 : en:Prologue\r\n00:00:52.052 : en:Opening\r\n00:02:22.016 : en:Part 1\r\n00:03:18.865 : en:Part 2\r\n00:10:28.044 : en:Part 3\r\n00:12:19.905 : en:Part 4\r\n00:13:44.240 : en:Part 5\r\n00:18:21.058 : en:Ending\r\n00:19:51.023 : en:Part 6\r\n00:20:27.893 : en:Part 7\r\n00:23:25.028 : en:Preview","torrent":{"xt":"urn:btih:6495716bf8a4445a64bf5763ec51b6ddfa442e2f","amp;dn":"%5BShepardTDS%5D+Ef+-+A+Tale+of+Melodies+Dual+Audio+%5B720p+8-bit+x265","amp;tr":["udp%3A%2F%2Ftracker.leechers-paradise.org%3A6969","udp%3A%2F%2Fzer0day.ch%3A1337","udp%3A%2F%2Fopen.demonii.com%3A1337","udp%3A%2F%2Ftracker.coppersurfer.tk%3A6969","udp%3A%2F%2Fexodus.desync.com%3A6969"],"infoHash":"6495716bf8a4445a64bf5763ec51b6ddfa442e2f","infoHashBuffer":{"type":"Buffer","data":[100,149,113,107,248,164,68,90,100,191,87,99,236,81,182,221,250,68,46,47]},"announce":[],"urlList":[]}}